<svg width="626" height="625" viewBox="0 0 626 625" fill="none" xmlns="http://www.w3.org/2000/svg">
<path fill-rule="evenodd" clip-rule="evenodd" d="M312.711 625C485.3 625 625.211 485.089 625.211 312.5C625.211 139.911 485.3 0 312.711 0C140.122 0 0.210938 139.911 0.210938 312.5C0.210938 485.089 140.122 625 312.711 625ZM312.711 550.781C444.31 550.781 550.992 444.099 550.992 312.5C550.992 180.901 444.31 74.2188 312.711 74.2188C181.112 74.2188 74.4297 180.901 74.4297 312.5C74.4297 444.099 181.112 550.781 312.711 550.781Z" fill="#FF815E"/>
<path fill-rule="evenodd" clip-rule="evenodd" d="M110.046 439.696C98.2529 436.497 86.7988 432.659 75.7109 428.23V346.748C92.165 355.871 109.961 363.17 128.902 368.309C229.593 395.623 332.301 353.66 386.792 271.435L461.037 291.581C393.834 413.166 250.444 477.783 110.046 439.696Z" fill="#FF815E"/>
<path fill-rule="evenodd" clip-rule="evenodd" d="M382.425 278.426C436.262 367.493 423.069 475.528 357.583 547.593L397.283 613.264C497.727 519.424 522.028 367.117 446.96 242.926C371.887 118.727 221.518 62.4973 86.0586 98.4377L125.758 164.109C223.95 146.128 328.583 189.352 382.425 278.426Z" fill="#FF815E"/>
</svg>
